<svg width="25" height="25" viewBox="0 0 25 25" fill="none" xmlns="http://www.w3.org/2000/svg">
<g clip-path="url(#clip0_1_54)">
<path d="M12.5 11.9754C14.7598 11.9754 16.5982 10.1372 16.5982 7.87769C16.5982 5.61821 14.7598 3.78003 12.5 3.78003C10.2402 3.78003 8.40176 5.61821 8.40176 7.87769C8.40176 10.1372 10.2402 11.9754 12.5 11.9754ZM12.5 5.24468C13.9521 5.24468 15.1334 6.42588 15.1334 7.87769C15.1334 9.32955 13.9521 10.5107 12.5 10.5107C11.0479 10.5107 9.86661 9.32955 9.86661 7.87769C9.86661 6.42588 11.048 5.24468 12.5 5.24468Z" fill="#2F73F2"/>
<path d="M8.03771 15.2408C9.14782 16.7436 8.70182 16.1591 11.8993 20.7243C12.19 21.1409 12.808 21.1428 13.1003 20.725C16.3122 16.1381 15.8703 16.719 16.9623 15.2407C18.0685 13.7431 19.2125 12.1944 19.8393 10.3797C20.7466 7.75269 20.3544 5.15342 18.7351 3.06064C18.7351 3.06064 18.7351 3.0606 18.735 3.0606C17.2517 1.14414 14.9209 0 12.5 0C10.0792 0 7.74831 1.14414 6.26496 3.06069C4.64567 5.15347 4.25348 7.75278 5.16081 10.3798C5.78756 12.1945 6.93151 13.7431 8.03771 15.2408ZM7.42345 3.95698C8.63136 2.39639 10.5292 1.46465 12.5 1.46465C14.4709 1.46465 16.3687 2.39639 17.5766 3.95698L17.5765 3.95693C18.8835 5.646 19.1953 7.75723 18.4547 9.90166C17.901 11.5046 16.8248 12.9616 15.784 14.3706C14.9737 15.4676 15.2162 15.1321 12.5 19.0255C9.78669 15.136 10.0261 15.4673 9.21603 14.3706C8.17526 12.9616 7.09904 11.5045 6.54538 9.90166C5.80475 7.75718 6.11657 5.646 7.42345 3.95698Z" fill="#2F73F2"/>
<path d="M8.63927 18.4163C8.42325 18.0744 7.97091 17.9722 7.62891 18.1882L5.54639 19.5035C5.0921 19.7904 5.09166 20.4546 5.54639 20.7418L12.1089 24.8868C12.3478 25.0377 12.6523 25.0376 12.8912 24.8868L19.4537 20.7418C19.908 20.4549 19.9084 19.7907 19.4537 19.5035L17.3712 18.1882C17.0291 17.9722 16.5768 18.0744 16.3608 18.4163C16.1447 18.7582 16.2469 19.2105 16.5889 19.4265L17.6911 20.1227L12.5 23.4014L7.30894 20.1227L8.41119 19.4265C8.75318 19.2106 8.85528 18.7583 8.63927 18.4163Z" fill="#46C4FF"/>
</g>
<defs>
<clipPath id="clip0_1_54">
<rect width="25" height="25" fill="white"/>
</clipPath>
</defs>
</svg>
