<svg width="135" height="135" viewBox="0 0 135 135" fill="none" xmlns="http://www.w3.org/2000/svg">
<path d="M35.9871 22.0713C29.0031 22.0708 22.2795 24.7225 17.1761 29.4902C12.0726 34.2578 8.97003 40.7857 8.49587 47.7535C8.02171 54.7214 10.2113 61.6094 14.6219 67.0245C19.0324 72.4396 25.3348 75.9777 32.2545 76.9233C32.809 76.9962 33.3698 76.8459 33.8135 76.5054C34.2572 76.1648 34.5474 75.662 34.6203 75.1075C34.6933 74.5529 34.5429 73.9921 34.2024 73.5485C33.8619 73.1048 33.359 72.8145 32.8045 72.7416C27.6912 72.0201 22.9593 69.6301 19.3438 65.9429C15.7284 62.2558 13.4317 57.4778 12.8107 52.3513C12.1366 46.6144 13.614 40.8313 16.9571 36.1207C20.3003 31.41 25.2717 28.1066 30.9097 26.8495C36.5476 25.5923 42.4515 26.4707 47.4792 29.3148C52.507 32.1588 56.3013 36.7664 58.1283 42.2463C59.2666 45.8969 59.4654 49.7757 58.7061 53.5234C54.7272 73.6083 46.7636 92.692 35.2857 109.648C35.1317 109.878 35.0247 110.136 34.9706 110.408C34.9166 110.68 34.9166 110.959 34.9706 111.231C35.0246 111.503 35.1317 111.761 35.2856 111.992C35.4395 112.222 35.6372 112.42 35.8676 112.574C36.0979 112.728 36.3563 112.835 36.628 112.889C36.8998 112.943 37.1795 112.943 37.4512 112.889C37.9999 112.78 38.4829 112.457 38.7937 111.992C50.5899 94.5511 58.7727 74.9241 62.859 54.2691C63.7453 49.827 63.4948 45.233 62.1308 40.9136C60.3077 35.4228 56.8001 30.6466 52.1066 27.2638C47.4131 23.8811 41.7726 22.0642 35.9871 22.0713Z" fill="#2F73F2"/>
<path d="M125.333 40.9134C123.78 36.2509 121.008 32.0886 117.305 28.8579C113.602 25.6271 109.102 23.4455 104.272 22.539C99.4422 21.6325 94.4577 22.0342 89.8352 23.7025C85.2127 25.3707 81.1205 28.2448 77.9826 32.0269C74.8447 35.809 72.7753 40.3614 71.989 45.2124C71.2026 50.0634 71.7279 55.0364 73.5103 59.6161C75.2927 64.1958 78.2675 68.2155 82.1263 71.2585C85.985 74.3016 90.5874 76.2574 95.4564 76.9231C96.0109 76.9961 96.5717 76.8457 97.0154 76.5052C97.4591 76.1647 97.7493 75.6618 97.8222 75.1073C97.8952 74.5528 97.7448 73.992 97.4043 73.5483C97.0638 73.1046 96.5609 72.8144 96.0064 72.7415C90.8931 72.0199 86.1612 69.6299 82.5457 65.9428C78.9303 62.2556 76.6337 57.4777 76.0127 52.3512C75.3385 46.6142 76.8159 40.8311 80.1591 36.1205C83.5023 31.4099 88.4736 28.1065 94.1116 26.8493C99.7495 25.5921 105.653 26.4705 110.681 29.3146C115.709 32.1587 119.503 36.7663 121.33 42.2462C122.469 45.8967 122.667 49.7755 121.908 53.5233C117.929 73.6081 109.966 92.6919 98.4876 109.647C98.1788 110.113 98.067 110.681 98.1767 111.229C98.2865 111.776 98.6088 112.258 99.0731 112.568C99.5374 112.878 100.106 112.992 100.654 112.884C101.201 112.776 101.684 112.455 101.996 111.992C113.792 94.551 121.975 74.9239 126.061 54.269C126.947 49.8269 126.697 45.2328 125.333 40.9134Z" fill="#2F73F2"/>
</svg>
