<svg width="50" height="50" viewBox="0 0 50 50" fill="none" xmlns="http://www.w3.org/2000/svg">
<g clip-path="url(#clip0_1_105)">
<path d="M33.2031 40.2344H40.2344V49.6094H33.2031V40.2344Z" fill="#2F73F2"/>
<path d="M46.875 23.8281H26.5625C25.8376 23.829 25.1426 24.1174 24.63 24.63C24.1174 25.1426 23.829 25.8376 23.8281 26.5625V48.4375C23.8281 48.7483 23.9516 49.0464 24.1714 49.2661C24.3911 49.4859 24.6892 49.6094 25 49.6094H30.8594V39.0625C30.8594 38.7517 30.9829 38.4536 31.2026 38.2339C31.4224 38.0141 31.7205 37.8906 32.0312 37.8906H41.4062C41.717 37.8906 42.0151 38.0141 42.2349 38.2339C42.4546 38.4536 42.5781 38.7517 42.5781 39.0625V49.6094H48.4375C48.7483 49.6094 49.0464 49.4859 49.2661 49.2661C49.4859 49.0464 49.6094 48.7483 49.6094 48.4375V26.5625C49.6085 25.8376 49.3201 25.1426 48.8075 24.63C48.2949 24.1174 47.5999 23.829 46.875 23.8281ZM29.4531 33.2031C29.4531 33.5139 29.3297 33.812 29.1099 34.0318C28.8901 34.2515 28.5921 34.375 28.2813 34.375C27.9704 34.375 27.6724 34.2515 27.4526 34.0318C27.2328 33.812 27.1094 33.5139 27.1094 33.2031V28.5156C27.1094 28.2048 27.2328 27.9068 27.4526 27.687C27.6724 27.4672 27.9704 27.3438 28.2813 27.3438C28.5921 27.3438 28.8901 27.4672 29.1099 27.687C29.3297 27.9068 29.4531 28.2048 29.4531 28.5156V33.2031ZM35.0781 33.2031C35.0781 33.5139 34.9547 33.812 34.7349 34.0318C34.5151 34.2515 34.2171 34.375 33.9063 34.375C33.5955 34.375 33.2974 34.2515 33.0776 34.0318C32.8578 33.812 32.7344 33.5139 32.7344 33.2031V28.5156C32.7344 28.2048 32.8578 27.9068 33.0776 27.687C33.2974 27.4672 33.5955 27.3438 33.9063 27.3438C34.2171 27.3438 34.5151 27.4672 34.7349 27.687C34.9547 27.9068 35.0781 28.2048 35.0781 28.5156V33.2031ZM40.7031 33.2031C40.7031 33.5139 40.5797 33.812 40.3599 34.0318C40.1401 34.2515 39.842 34.375 39.5312 34.375C39.2204 34.375 38.9224 34.2515 38.7026 34.0318C38.4828 33.812 38.3594 33.5139 38.3594 33.2031V28.5156C38.3594 28.2048 38.4828 27.9068 38.7026 27.687C38.9224 27.4672 39.2204 27.3438 39.5312 27.3438C39.842 27.3438 40.1401 27.4672 40.3599 27.687C40.5797 27.9068 40.7031 28.2048 40.7031 28.5156V33.2031ZM46.3281 33.2031C46.3281 33.5139 46.2047 33.812 45.9849 34.0318C45.7651 34.2515 45.4671 34.375 45.1562 34.375C44.8454 34.375 44.5474 34.2515 44.3276 34.0318C44.1078 33.812 43.9844 33.5139 43.9844 33.2031V28.5156C43.9844 28.2048 44.1078 27.9068 44.3276 27.687C44.5474 27.4672 44.8454 27.3438 45.1562 27.3438C45.4671 27.3438 45.7651 27.4672 45.9849 27.687C46.2047 27.9068 46.3281 28.2048 46.3281 28.5156V33.2031Z" fill="#2F73F2"/>
<path d="M26.2779 0.426394L1.27792 6.67631C1.02448 6.73977 0.799506 6.88611 0.638745 7.09207C0.477985 7.29803 0.390654 7.5518 0.390625 7.81307V48.4375C0.39064 48.7483 0.514109 49.0463 0.733875 49.2661C0.953641 49.4859 1.2517 49.6093 1.5625 49.6093H20.3125C20.6233 49.6093 20.9214 49.4859 21.1411 49.2661C21.3609 49.0463 21.4844 48.7483 21.4844 48.4375C21.4844 48.1267 21.3609 47.8286 21.1411 47.6088C20.9214 47.389 20.6233 47.2656 20.3125 47.2656H19.1406V39.5833C19.1406 39.2725 19.0171 38.9745 18.7974 38.7547C18.5776 38.5349 18.2795 38.4114 17.9688 38.4114H10.1562C9.84545 38.4115 9.54739 38.5349 9.32763 38.7547C9.10786 38.9745 8.98439 39.2725 8.98438 39.5833V47.2656H2.73438V8.7282L25.3906 3.06422V20.3129C25.3906 20.6237 25.5141 20.9218 25.7339 21.1415C25.9536 21.3613 26.2517 21.4848 26.5625 21.4848C26.8733 21.4848 27.1714 21.3613 27.3911 21.1415C27.6109 20.9218 27.7344 20.6237 27.7344 20.3129V1.56316C27.7343 1.38508 27.6936 1.20937 27.6154 1.04936C27.5373 0.88935 27.4237 0.749245 27.2833 0.639678C27.1429 0.53011 26.9794 0.453959 26.8052 0.417004C26.631 0.380049 26.4507 0.38326 26.2779 0.426394ZM11.3281 40.7552H16.7969V47.2656H11.3281V40.7552Z" fill="#C0D5FB"/>
<path d="M20.3125 30.1654C20.0017 30.1654 19.7036 30.2889 19.4839 30.5087C19.2641 30.7284 19.1406 31.0265 19.1406 31.3373V34.896C19.1406 35.2068 19.2641 35.5049 19.4839 35.7247C19.7036 35.9445 20.0017 36.0679 20.3125 36.0679C20.6233 36.0679 20.9214 35.9445 21.1411 35.7247C21.3609 35.5049 21.4844 35.2068 21.4844 34.896V31.3373C21.4844 31.0265 21.3609 30.7284 21.1411 30.5087C20.9214 30.2889 20.6233 30.1654 20.3125 30.1654Z" fill="#C0D5FB"/>
<path d="M14.0625 30.1654C13.7517 30.1654 13.4536 30.2889 13.2339 30.5087C13.0141 30.7284 12.8906 31.0265 12.8906 31.3373V34.896C12.8906 35.2068 13.0141 35.5049 13.2339 35.7247C13.4536 35.9445 13.7517 36.0679 14.0625 36.0679C14.3733 36.0679 14.6714 35.9445 14.8911 35.7247C15.1109 35.5049 15.2344 35.2068 15.2344 34.896V31.3373C15.2344 31.0265 15.1109 30.7284 14.8911 30.5087C14.6714 30.2889 14.3733 30.1654 14.0625 30.1654Z" fill="#C0D5FB"/>
<path d="M7.8125 30.1654C7.5017 30.1654 7.20364 30.2889 6.98388 30.5087C6.76411 30.7284 6.64064 31.0265 6.64062 31.3373V34.896C6.64063 35.2068 6.76409 35.5049 6.98386 35.7247C7.20363 35.9445 7.5017 36.0679 7.8125 36.0679C8.1233 36.0679 8.42137 35.9445 8.64114 35.7247C8.86091 35.5049 8.98438 35.2068 8.98438 34.896V31.3373C8.98436 31.0265 8.86089 30.7284 8.64112 30.5087C8.42136 30.2889 8.1233 30.1654 7.8125 30.1654Z" fill="#C0D5FB"/>
<path d="M20.3125 21.9188C20.0017 21.9188 19.7036 22.0423 19.4839 22.2621C19.2641 22.4818 19.1406 22.7799 19.1406 23.0907V26.6498C19.1406 26.9606 19.2641 27.2587 19.4839 27.4785C19.7036 27.6982 20.0017 27.8217 20.3125 27.8217C20.6233 27.8217 20.9214 27.6982 21.1411 27.4785C21.3609 27.2587 21.4844 26.9606 21.4844 26.6498V23.0907C21.4844 22.7799 21.3609 22.4818 21.1411 22.2621C20.9214 22.0423 20.6233 21.9188 20.3125 21.9188Z" fill="#C0D5FB"/>
<path d="M15.2344 23.0907C15.2344 22.7799 15.1109 22.4818 14.8911 22.2621C14.6714 22.0423 14.3733 21.9188 14.0625 21.9188C13.7517 21.9188 13.4536 22.0423 13.2339 22.2621C13.0141 22.4818 12.8906 22.7799 12.8906 23.0907V26.6498C12.8906 26.9606 13.0141 27.2587 13.2339 27.4785C13.4536 27.6982 13.7517 27.8217 14.0625 27.8217C14.3733 27.8217 14.6714 27.6982 14.8911 27.4785C15.1109 27.2587 15.2344 26.9606 15.2344 26.6498V23.0907Z" fill="#C0D5FB"/>
<path d="M8.98438 23.0907C8.98438 22.7799 8.86091 22.4818 8.64114 22.2621C8.42137 22.0423 8.1233 21.9188 7.8125 21.9188C7.5017 21.9188 7.20363 22.0423 6.98386 22.2621C6.76409 22.4818 6.64063 22.7799 6.64062 23.0907V26.6498C6.64063 26.9606 6.76409 27.2587 6.98386 27.4785C7.20363 27.6982 7.5017 27.8217 7.8125 27.8217C8.1233 27.8217 8.42137 27.6982 8.64114 27.4785C8.86091 27.2587 8.98438 26.9606 8.98438 26.6498V23.0907Z" fill="#C0D5FB"/>
<path d="M20.3125 13.6722C20.0017 13.6723 19.7036 13.7957 19.4839 14.0155C19.2641 14.2353 19.1406 14.5333 19.1406 14.8441V18.4032C19.1406 18.714 19.2641 19.0121 19.4839 19.2319C19.7036 19.4516 20.0017 19.5751 20.3125 19.5751C20.6233 19.5751 20.9214 19.4516 21.1411 19.2319C21.3609 19.0121 21.4844 18.714 21.4844 18.4032V14.8441C21.4844 14.5333 21.3609 14.2353 21.1411 14.0155C20.9214 13.7957 20.6233 13.6723 20.3125 13.6722Z" fill="#C0D5FB"/>
<path d="M15.2344 14.8441C15.2344 14.5333 15.1109 14.2352 14.8911 14.0155C14.6714 13.7957 14.3733 13.6722 14.0625 13.6722C13.7517 13.6722 13.4536 13.7957 13.2339 14.0155C13.0141 14.2352 12.8906 14.5333 12.8906 14.8441V18.4032C12.8906 18.714 13.0141 19.0121 13.2339 19.2319C13.4536 19.4516 13.7517 19.5751 14.0625 19.5751C14.3733 19.5751 14.6714 19.4516 14.8911 19.2319C15.1109 19.0121 15.2344 18.714 15.2344 18.4032V14.8441Z" fill="#C0D5FB"/>
<path d="M8.98438 14.8441C8.98438 14.5333 8.86091 14.2352 8.64114 14.0155C8.42137 13.7957 8.1233 13.6722 7.8125 13.6722C7.5017 13.6722 7.20363 13.7957 6.98386 14.0155C6.76409 14.2352 6.64063 14.5333 6.64062 14.8441V18.4032C6.64063 18.714 6.76409 19.0121 6.98386 19.2319C7.20363 19.4516 7.5017 19.5751 7.8125 19.5751C8.1233 19.5751 8.42137 19.4516 8.64114 19.2319C8.86091 19.0121 8.98438 18.714 8.98438 18.4032V14.8441Z" fill="#C0D5FB"/>
</g>
<defs>
<clipPath id="clip0_1_105">
<rect width="50" height="50" fill="white"/>
</clipPath>
</defs>
</svg>
