<svg width="50" height="50" viewBox="0 0 50 50" fill="none" xmlns="http://www.w3.org/2000/svg">
<g clip-path="url(#clip0_1_130)">
<path d="M12.4932 34.7862L24.2119 24.1329C24.4275 23.9366 24.7085 23.8279 25 23.8279C25.2915 23.8279 25.5726 23.9366 25.7882 24.1329L37.5069 34.7862C37.6815 34.9455 37.8038 35.1538 37.858 35.3839C37.9121 35.6139 37.8955 35.8549 37.8103 36.0754C37.7251 36.2958 37.5753 36.4854 37.3805 36.6192C37.1858 36.7531 36.9551 36.825 36.7188 36.8255H13.2813C13.045 36.825 12.8143 36.7531 12.6196 36.6192C12.4248 36.4853 12.275 36.2958 12.1898 36.0754C12.1046 35.8549 12.088 35.6139 12.1421 35.3839C12.1963 35.1538 12.3186 34.9455 12.4932 34.7862Z" fill="#2F73F2"/>
<path d="M22.2656 43.8569H27.7344V49.6093H22.2656V43.8569Z" fill="#2F73F2"/>
<path d="M14.4531 39.1693V48.4375C14.4531 48.7483 14.5766 49.0464 14.7964 49.2661C15.0161 49.4859 15.3142 49.6094 15.625 49.6094H19.9219V42.6849C19.9219 42.3741 20.0454 42.0761 20.2651 41.8563C20.4849 41.6365 20.783 41.5131 21.0938 41.5131H28.9062C29.217 41.5131 29.5151 41.6365 29.7349 41.8563C29.9546 42.0761 30.0781 42.3741 30.0781 42.6849V49.6094H34.375C34.6858 49.6094 34.9839 49.4859 35.2036 49.2661C35.4234 49.0464 35.5469 48.7483 35.5469 48.4375V39.1693H14.4531Z" fill="#2F73F2"/>
<path d="M23.0469 10.1563C23.0494 8.44423 22.6018 6.76161 21.749 5.27711C20.8961 3.79261 19.668 2.5584 18.1877 1.69824C16.7074 0.838078 15.027 0.382188 13.315 0.376279C11.6029 0.37037 9.91942 0.81465 8.43324 1.66457C6.94706 2.5145 5.71044 3.74019 4.84735 5.21877C3.98427 6.69735 3.52507 8.37685 3.51578 10.0889C3.50649 11.8009 3.94745 13.4853 4.79444 14.9731C5.64143 16.461 6.86468 17.7 8.34156 18.566C5.98975 19.5442 3.97991 21.1963 2.56509 23.3143C1.15026 25.4324 0.393686 27.9217 0.390625 30.4688V48.4375C0.390706 48.7483 0.514197 49.0463 0.733948 49.2661C0.9537 49.4858 1.25172 49.6093 1.5625 49.6094H10.9375C11.2483 49.6094 11.5464 49.4859 11.7661 49.2662C11.9859 49.0464 12.1094 48.7483 12.1094 48.4375C12.1094 48.1267 11.9859 47.8286 11.7661 47.6089C11.5464 47.3891 11.2483 47.2656 10.9375 47.2656H2.73438V30.4688C2.73225 28.4053 3.33607 26.3867 4.47091 24.6633C5.60575 22.94 7.22166 21.5878 9.11809 20.7746C11.0145 19.9614 13.108 19.7229 15.1387 20.0888C17.1695 20.4547 19.0481 21.4089 20.5414 22.8329C20.6529 22.939 20.7842 23.0221 20.9279 23.0774C21.0715 23.1328 21.2246 23.1593 21.3785 23.1555C21.5324 23.1517 21.684 23.1176 21.8247 23.0551C21.9654 22.9927 22.0924 22.9032 22.1985 22.7917C22.3046 22.6802 22.3877 22.5489 22.4431 22.4052C22.4984 22.2616 22.5249 22.1085 22.5211 21.9546C22.5173 21.8007 22.4832 21.6491 22.4208 21.5084C22.3583 21.3677 22.2688 21.2407 22.1573 21.1346C21.0116 20.0455 19.6757 19.1759 18.2161 18.569C19.6847 17.7094 20.9031 16.4809 21.7505 15.0052C22.5979 13.5295 23.0448 11.8579 23.0469 10.1563ZM13.2813 17.5781C11.8133 17.5781 10.3784 17.1429 9.15788 16.3273C7.93736 15.5118 6.98608 14.3527 6.42433 12.9965C5.86259 11.6403 5.71561 10.148 6.00198 8.70834C6.28836 7.26864 6.99522 5.94619 8.03319 4.90822C9.07116 3.87025 10.3936 3.16339 11.8333 2.87701C13.273 2.59064 14.7653 2.73762 16.1215 3.29936C17.4776 3.8611 18.6368 4.81238 19.4523 6.0329C20.2678 7.25343 20.7031 8.68837 20.7031 10.1563C20.7009 12.124 19.9182 14.0105 18.5268 15.4019C17.1355 16.7932 15.249 17.5759 13.2813 17.5781Z" fill="#C0D5FB"/>
<path d="M41.6585 18.5661C43.5082 17.4814 44.9495 15.818 45.76 13.8327C46.5704 11.8474 46.7048 9.65055 46.1425 7.58125C45.5802 5.51195 44.3524 3.68526 42.6487 2.38312C40.945 1.08099 38.8601 0.375824 36.7158 0.376465C34.5714 0.377107 32.4869 1.08352 30.784 2.38667C29.081 3.68982 27.8544 5.51725 27.2933 7.58689C26.7323 9.65652 26.868 11.8533 27.6796 13.8381C28.4912 15.8229 29.9335 17.4854 31.7839 18.569C30.3243 19.1759 28.9884 20.0455 27.8427 21.1346C27.6188 21.3492 27.4891 21.6438 27.4819 21.9538C27.4748 22.2639 27.5908 22.5641 27.8046 22.7888C28.0184 23.0135 28.3125 23.1443 28.6225 23.1525C28.9325 23.1608 29.2332 23.0459 29.4586 22.8329C30.9519 21.4089 32.8305 20.4548 34.8613 20.0889C36.892 19.723 38.9855 19.9614 40.8819 20.7746C42.7784 21.5879 44.3943 22.94 45.5291 24.6634C46.6639 26.3867 47.2678 28.4054 47.2656 30.4688V47.2657H39.0625C38.7517 47.2657 38.4536 47.3892 38.2339 47.6089C38.0141 47.8287 37.8906 48.1268 37.8906 48.4376C37.8906 48.7484 38.0141 49.0464 38.2339 49.2662C38.4536 49.486 38.7517 49.6094 39.0625 49.6094H48.4375C48.7483 49.6094 49.0463 49.4859 49.2661 49.2661C49.4858 49.0464 49.6093 48.7483 49.6094 48.4376V30.4688C49.6063 27.9217 48.8498 25.4324 47.4349 23.3144C46.0201 21.1963 44.0103 19.5442 41.6585 18.5661ZM29.2969 10.1563C29.2969 8.6884 29.7322 7.25346 30.5477 6.03294C31.3632 4.81241 32.5224 3.86113 33.8785 3.29939C35.2347 2.73765 36.727 2.59067 38.1667 2.87704C39.6064 3.16342 40.9289 3.87028 41.9668 4.90825C43.0048 5.94622 43.7117 7.26867 43.998 8.70837C44.2844 10.1481 44.1374 11.6404 43.5757 12.9965C43.0139 14.3527 42.0627 15.5118 40.8421 16.3274C39.6216 17.1429 38.1867 17.5782 36.7188 17.5782C34.751 17.5759 32.8646 16.7933 31.4732 15.4019C30.0818 14.0105 29.2991 12.124 29.2969 10.1563Z" fill="#C0D5FB"/>
</g>
<defs>
<clipPath id="clip0_1_130">
<rect width="50" height="50" fill="white"/>
</clipPath>
</defs>
</svg>
