<svg width="50" height="50" viewBox="0 0 50 50" fill="none" xmlns="http://www.w3.org/2000/svg">
<g clip-path="url(#clip0_1_147)">
<path d="M33.2031 40.2344H40.2344V49.6094H33.2031V40.2344Z" fill="#2F73F2"/>
<path d="M46.875 23.8281H26.5625C25.8376 23.829 25.1426 24.1174 24.63 24.63C24.1174 25.1426 23.829 25.8376 23.8281 26.5625V48.4375C23.8281 48.5914 23.8584 48.7438 23.9173 48.886C23.9762 49.0282 24.0625 49.1574 24.1713 49.2662C24.2801 49.375 24.4093 49.4613 24.5515 49.5202C24.6937 49.5791 24.8461 49.6094 25 49.6094H30.8594V39.0625C30.8594 38.7517 30.9829 38.4536 31.2026 38.2339C31.4224 38.0141 31.7205 37.8906 32.0312 37.8906H41.4062C41.717 37.8906 42.0151 38.0141 42.2349 38.2339C42.4546 38.4536 42.5781 38.7517 42.5781 39.0625V49.6094H48.4375C48.7483 49.6094 49.0464 49.4859 49.2661 49.2661C49.4859 49.0464 49.6094 48.7483 49.6094 48.4375V26.5625C49.6085 25.8376 49.3201 25.1426 48.8075 24.63C48.2949 24.1174 47.5999 23.829 46.875 23.8281ZM43.75 34.7656H29.6875C29.3767 34.7656 29.0786 34.6422 28.8589 34.4224C28.6391 34.2026 28.5156 33.9046 28.5156 33.5938C28.5156 33.2829 28.6391 32.9849 28.8589 32.7651C29.0786 32.5453 29.3767 32.4219 29.6875 32.4219H43.75C44.0608 32.4219 44.3589 32.5453 44.5786 32.7651C44.7984 32.9849 44.9219 33.2829 44.9219 33.5938C44.9219 33.9046 44.7984 34.2026 44.5786 34.4224C44.3589 34.6422 44.0608 34.7656 43.75 34.7656ZM43.75 29.2969H29.6875C29.3767 29.2969 29.0786 29.1734 28.8589 28.9536C28.6391 28.7339 28.5156 28.4358 28.5156 28.125C28.5156 27.8142 28.6391 27.5161 28.8589 27.2964C29.0786 27.0766 29.3767 26.9531 29.6875 26.9531H43.75C44.0608 26.9531 44.3589 27.0766 44.5786 27.2964C44.7984 27.5161 44.9219 27.8142 44.9219 28.125C44.9219 28.4358 44.7984 28.7339 44.5786 28.9536C44.3589 29.1734 44.0608 29.2969 43.75 29.2969Z" fill="#2F73F2"/>
<path d="M25.7812 6.64062H24.6094V3.125C24.6085 2.40007 24.3201 1.70508 23.8075 1.19247C23.2949 0.679868 22.5999 0.391502 21.875 0.390625H6.25C5.52507 0.391502 4.83008 0.679868 4.31747 1.19247C3.80487 1.70508 3.5165 2.40007 3.51562 3.125V6.64062H2.34375C1.82594 6.64123 1.3295 6.8472 0.963353 7.21335C0.597203 7.5795 0.391233 8.07594 0.390625 8.59375V48.4375C0.390601 48.5914 0.420897 48.7438 0.479781 48.886C0.538664 49.0282 0.624983 49.1574 0.733807 49.2662C0.84263 49.375 0.971826 49.4613 1.11401 49.5202C1.2562 49.5791 1.4086 49.6094 1.5625 49.6094H20.3125C20.6233 49.6094 20.9214 49.4859 21.1411 49.2661C21.3609 49.0464 21.4844 48.7483 21.4844 48.4375C21.4844 48.1267 21.3609 47.8286 21.1411 47.6089C20.9214 47.3891 20.6233 47.2656 20.3125 47.2656H19.1406V39.5832C19.1406 39.4293 19.1104 39.2769 19.0515 39.1347C18.9926 38.9925 18.9063 38.8633 18.7974 38.7545C18.6886 38.6457 18.5594 38.5594 18.4172 38.5005C18.275 38.4416 18.1227 38.4113 17.9688 38.4113H10.1562C10.0024 38.4113 9.84995 38.4416 9.70777 38.5005C9.56558 38.5594 9.43638 38.6457 9.32756 38.7545C9.21873 38.8633 9.13241 38.9925 9.07353 39.1347C9.01465 39.2769 8.98435 39.4293 8.98438 39.5832V47.2656H2.73438V8.98438H25.3906V20.3125C25.3906 20.6233 25.5141 20.9214 25.7339 21.1411C25.9536 21.3609 26.2517 21.4844 26.5625 21.4844C26.8733 21.4844 27.1714 21.3609 27.3911 21.1411C27.6109 20.9214 27.7344 20.6233 27.7344 20.3125V8.59375C27.7338 8.07592 27.5279 7.57945 27.1617 7.21328C26.7956 6.84712 26.2991 6.64117 25.7812 6.64062ZM11.3281 40.7551H16.7969V47.2656H11.3281V40.7551ZM22.2656 6.64062H5.85938V3.125C5.85945 3.02142 5.90062 2.92211 5.97386 2.84886C6.04711 2.77562 6.14642 2.73445 6.25 2.73438H21.875C21.9786 2.73445 22.0779 2.77562 22.1511 2.84886C22.2244 2.92211 22.2656 3.02142 22.2656 3.125V6.64062Z" fill="#C0D5FB"/>
<path d="M8.98438 12.5C8.98438 12.1892 8.86091 11.8911 8.64114 11.6714C8.42137 11.4516 8.1233 11.3281 7.8125 11.3281C7.5017 11.3281 7.20363 11.4516 6.98386 11.6714C6.76409 11.8911 6.64063 12.1892 6.64062 12.5V21.3543C6.64063 21.6651 6.76409 21.9632 6.98386 22.1829C7.20363 22.4027 7.5017 22.5262 7.8125 22.5262C8.1233 22.5262 8.42137 22.4027 8.64114 22.1829C8.86091 21.9632 8.98438 21.6651 8.98438 21.3543V12.5Z" fill="#C0D5FB"/>
<path d="M15.2344 12.5C15.2344 12.1892 15.1109 11.8911 14.8911 11.6714C14.6714 11.4516 14.3733 11.3281 14.0625 11.3281C13.7517 11.3281 13.4536 11.4516 13.2339 11.6714C13.0141 11.8911 12.8906 12.1892 12.8906 12.5V21.3543C12.8906 21.6651 13.0141 21.9632 13.2339 22.1829C13.4536 22.4027 13.7517 22.5262 14.0625 22.5262C14.3733 22.5262 14.6714 22.4027 14.8911 22.1829C15.1109 21.9632 15.2344 21.6651 15.2344 21.3543V12.5Z" fill="#C0D5FB"/>
<path d="M20.3125 11.3281C20.1586 11.3281 20.0062 11.3584 19.864 11.4173C19.7218 11.4762 19.5926 11.5625 19.4838 11.6713C19.375 11.7801 19.2887 11.9093 19.2298 12.0515C19.1709 12.1937 19.1406 12.3461 19.1406 12.5V21.3543C19.1406 21.6651 19.2641 21.9632 19.4839 22.1829C19.7036 22.4027 20.0017 22.5262 20.3125 22.5262C20.6233 22.5262 20.9214 22.4027 21.1411 22.1829C21.3609 21.9632 21.4844 21.6651 21.4844 21.3543V12.5C21.4844 12.3461 21.4541 12.1937 21.3952 12.0515C21.3363 11.9093 21.25 11.7801 21.1412 11.6713C21.0324 11.5625 20.9032 11.4762 20.761 11.4173C20.6188 11.3584 20.4664 11.3281 20.3125 11.3281Z" fill="#C0D5FB"/>
<path d="M7.8125 24.8699C7.6586 24.8698 7.5062 24.9001 7.36401 24.959C7.22182 25.0179 7.09263 25.1042 6.9838 25.2131C6.87498 25.3219 6.78866 25.4511 6.72978 25.5933C6.6709 25.7355 6.6406 25.8878 6.64063 26.0417V34.8957C6.64063 35.2065 6.76409 35.5045 6.98386 35.7243C7.20363 35.9441 7.5017 36.0675 7.8125 36.0675C8.1233 36.0675 8.42137 35.9441 8.64114 35.7243C8.86091 35.5045 8.98438 35.2065 8.98438 34.8957V26.0417C8.9844 25.8878 8.9541 25.7355 8.89522 25.5933C8.83634 25.4511 8.75002 25.3219 8.6412 25.2131C8.53237 25.1042 8.40318 25.0179 8.26099 24.959C8.1188 24.9001 7.9664 24.8698 7.8125 24.8699Z" fill="#C0D5FB"/>
<path d="M14.0625 24.8699C13.9086 24.8698 13.7562 24.9001 13.614 24.959C13.4718 25.0179 13.3426 25.1042 13.2338 25.2131C13.125 25.3219 13.0387 25.4511 12.9798 25.5933C12.9209 25.7355 12.8906 25.8878 12.8906 26.0417V34.8957C12.8906 35.2065 13.0141 35.5045 13.2339 35.7243C13.4536 35.9441 13.7517 36.0675 14.0625 36.0675C14.3733 36.0675 14.6714 35.9441 14.8911 35.7243C15.1109 35.5045 15.2344 35.2065 15.2344 34.8957V26.0417C15.2344 25.8878 15.2041 25.7355 15.1452 25.5933C15.0863 25.4511 15 25.3219 14.8912 25.2131C14.7824 25.1042 14.6532 25.0179 14.511 24.959C14.3688 24.9001 14.2164 24.8698 14.0625 24.8699Z" fill="#C0D5FB"/>
<path d="M20.3125 24.8699C20.1586 24.8698 20.0062 24.9001 19.864 24.959C19.7218 25.0179 19.5926 25.1042 19.4838 25.2131C19.375 25.3219 19.2887 25.4511 19.2298 25.5933C19.1709 25.7355 19.1406 25.8878 19.1406 26.0417V34.8957C19.1406 35.2065 19.2641 35.5045 19.4839 35.7243C19.7036 35.9441 20.0017 36.0675 20.3125 36.0675C20.6233 36.0675 20.9214 35.9441 21.1411 35.7243C21.3609 35.5045 21.4844 35.2065 21.4844 34.8957V26.0417C21.4844 25.8878 21.4541 25.7355 21.3952 25.5933C21.3363 25.4511 21.25 25.3219 21.1412 25.2131C21.0324 25.1042 20.9032 25.0179 20.761 24.959C20.6188 24.9001 20.4664 24.8698 20.3125 24.8699Z" fill="#C0D5FB"/>
</g>
<defs>
<clipPath id="clip0_1_147">
<rect width="50" height="50" fill="white"/>
</clipPath>
</defs>
</svg>
