<svg width="50" height="50" viewBox="0 0 50 50" fill="none" xmlns="http://www.w3.org/2000/svg">
<g clip-path="url(#clip0_1_137)">
<path d="M26.1719 35.5469L26.1727 40.2344H30.8594V35.5469H28.5156H26.1719Z" fill="#2F73F2"/>
<path d="M22.6562 33.2031H25H27.3438V28.5164H22.6562V33.2031Z" fill="#2F73F2"/>
<path d="M37.5069 25.4112L25.7881 14.7579C25.5725 14.5616 25.2915 14.4529 25 14.4529C24.7085 14.4529 24.4275 14.5616 24.2119 14.7579L12.4931 25.4112C12.3723 25.521 12.2757 25.6549 12.2097 25.8042C12.1436 25.9535 12.1094 26.115 12.1094 26.2783V39.0625C12.1094 39.3733 12.2329 39.6713 12.4526 39.8911C12.6724 40.1108 12.9705 40.2343 13.2812 40.2343H16.7969V34.3753C16.7969 34.0645 16.9204 33.7665 17.1401 33.5467C17.3599 33.327 17.658 33.2035 17.9688 33.2035H20.3125V27.3445C20.3125 27.0337 20.436 26.7356 20.6557 26.5159C20.8755 26.2961 21.1736 26.1726 21.4844 26.1726H28.5156C28.8264 26.1726 29.1245 26.2961 29.3442 26.5159C29.564 26.7356 29.6875 27.0337 29.6875 27.3445V33.2035H32.0312C32.342 33.2035 32.6401 33.327 32.8599 33.5467C33.0796 33.7665 33.2031 34.0646 33.2031 34.3754V40.2343H36.7188C37.0295 40.2343 37.3276 40.1108 37.5474 39.8911C37.7671 39.6713 37.8906 39.3733 37.8906 39.0625V26.2783C37.8906 26.115 37.8564 25.9535 37.7903 25.8042C37.7243 25.6549 37.6277 25.521 37.5069 25.4112Z" fill="#2F73F2"/>
<path d="M19.1406 40.2344H23.8281V35.5469H21.4844H19.1406V40.2344Z" fill="#2F73F2"/>
<path d="M6.25 44.9219H43.75C44.0608 44.9219 44.3589 44.7984 44.5786 44.5786C44.7984 44.3589 44.9219 44.0608 44.9219 43.75C44.9219 43.4392 44.7984 43.1411 44.5786 42.9214C44.3589 42.7016 44.0608 42.5781 43.75 42.5781H6.25C5.9392 42.5781 5.64113 42.7016 5.42136 42.9214C5.20159 43.1411 5.07812 43.4392 5.07812 43.75C5.07812 44.0608 5.20159 44.3589 5.42136 44.5786C5.64113 44.7984 5.9392 44.9219 6.25 44.9219Z" fill="#C0D5FB"/>
<path d="M46.875 0.390625H3.125C2.40007 0.391502 1.70508 0.679868 1.19247 1.19247C0.679868 1.70508 0.391502 2.40007 0.390625 3.125V46.875C0.391502 47.5999 0.679868 48.2949 1.19247 48.8075C1.70508 49.3201 2.40007 49.6085 3.125 49.6094H46.875C47.5999 49.6085 48.2949 49.3201 48.8075 48.8075C49.3201 48.2949 49.6085 47.5999 49.6094 46.875V3.125C49.6085 2.40007 49.3201 1.70508 48.8075 1.19247C48.2949 0.679868 47.5999 0.391502 46.875 0.390625ZM47.2656 46.875C47.2655 46.9786 47.2243 47.0778 47.1511 47.1511C47.0778 47.2243 46.9786 47.2655 46.875 47.2656H3.125C3.02144 47.2655 2.92216 47.2243 2.84893 47.1511C2.77571 47.0778 2.73451 46.9786 2.73438 46.875V12.1094H47.2656V46.875ZM47.2656 9.76562H2.73438V3.125C2.73451 3.02144 2.77571 2.92216 2.84893 2.84893C2.92216 2.77571 3.02144 2.73451 3.125 2.73438H46.875C46.9786 2.73451 47.0778 2.77571 47.1511 2.84893C47.2243 2.92216 47.2655 3.02144 47.2656 3.125V9.76562Z" fill="#C0D5FB"/>
<path d="M13.2812 5.07812H6.25C5.9392 5.07812 5.64113 5.20159 5.42136 5.42136C5.20159 5.64113 5.07812 5.9392 5.07812 6.25C5.07812 6.5608 5.20159 6.85887 5.42136 7.07864C5.64113 7.29841 5.9392 7.42188 6.25 7.42188H13.2812C13.5921 7.42188 13.8901 7.29841 14.1099 7.07864C14.3297 6.85887 14.4531 6.5608 14.4531 6.25C14.4531 5.9392 14.3297 5.64113 14.1099 5.42136C13.8901 5.20159 13.5921 5.07812 13.2812 5.07812Z" fill="#C0D5FB"/>
</g>
<defs>
<clipPath id="clip0_1_137">
<rect width="50" height="50" fill="white"/>
</clipPath>
</defs>
</svg>
