<svg width="50" height="50" viewBox="0 0 50 50" fill="none" xmlns="http://www.w3.org/2000/svg">
<g clip-path="url(#clip0_1_118)">
<path d="M15.5602 14.4531H7.87738V23.8281H15.5602V14.4531Z" fill="#2F73F2"/>
<path d="M22.4686 6.51854L12.3123 0.552353C12.1323 0.446696 11.9274 0.390991 11.7187 0.390991C11.5101 0.390991 11.3051 0.446696 11.1252 0.552353L0.96893 6.51854C0.792742 6.62178 0.646653 6.76934 0.545195 6.94656C0.443738 7.12378 0.390447 7.32447 0.390625 7.52867V22.6562C0.390706 22.967 0.514197 23.265 0.733949 23.4848C0.9537 23.7045 1.25172 23.828 1.5625 23.8281H5.53359V13.2812C5.53367 12.9705 5.65716 12.6724 5.87692 12.4527C6.09667 12.2329 6.39469 12.1094 6.70547 12.1094H16.732C17.0428 12.1094 17.3408 12.2329 17.5606 12.4527C17.7803 12.6724 17.9038 12.9705 17.9039 13.2812V23.8281H21.875C22.1858 23.828 22.4838 23.7045 22.7035 23.4848C22.9233 23.265 23.0468 22.967 23.0469 22.6562V7.52867C23.047 7.32447 22.9938 7.12378 22.8923 6.94656C22.7908 6.76934 22.6448 6.62178 22.4686 6.51854Z" fill="#2F73F2"/>
<path d="M49.0311 6.51854L38.8748 0.552353C38.6949 0.446696 38.4899 0.390991 38.2813 0.390991C38.0726 0.390991 37.8677 0.446696 37.6877 0.552353L27.5314 6.51854C27.3552 6.62178 27.2092 6.76934 27.1077 6.94656C27.0062 7.12378 26.9529 7.32447 26.9531 7.52867V22.6562C26.9532 22.967 27.0767 23.265 27.2964 23.4848C27.5162 23.7045 27.8142 23.828 28.125 23.8281H48.4375C48.7483 23.828 49.0463 23.7045 49.2661 23.4848C49.4858 23.265 49.6093 22.967 49.6094 22.6562V7.52867C49.6096 7.32447 49.5563 7.12378 49.4548 6.94656C49.3534 6.76934 49.2073 6.62178 49.0311 6.51854ZM41.3414 21.4844H35.2211V14.4531H41.3414V21.4844ZM47.2656 21.4844H43.6852V13.2812C43.6851 12.9705 43.5616 12.6724 43.3418 12.4527C43.1221 12.2329 42.8241 12.1094 42.5133 12.1094H34.0492C33.7384 12.1094 33.4404 12.2329 33.2207 12.4527C33.0009 12.6724 32.8774 12.9705 32.8773 13.2812V21.4844H29.2969V8.1993L38.2813 2.92128L47.2656 8.1993V21.4844Z" fill="#C0D5FB"/>
<path d="M22.4686 32.2998L12.3123 26.3336C12.1323 26.2279 11.9274 26.1722 11.7187 26.1722C11.5101 26.1722 11.3051 26.2279 11.1252 26.3336L0.96893 32.2998C0.792742 32.403 0.646653 32.5506 0.545195 32.7278C0.443738 32.905 0.390447 33.1057 0.390625 33.3099V48.4375C0.390706 48.7483 0.514197 49.0463 0.733949 49.266C0.9537 49.4858 1.25172 49.6093 1.5625 49.6094H21.875C22.1858 49.6093 22.4838 49.4858 22.7035 49.266C22.9233 49.0463 23.0468 48.7483 23.0469 48.4375V33.3099C23.047 33.1057 22.9938 32.905 22.8923 32.7278C22.7908 32.5506 22.6448 32.403 22.4686 32.2998ZM14.7789 47.2656H8.65859V40.2344H14.7789V47.2656ZM20.7031 47.2656H17.1227V39.0625C17.1226 38.7517 16.9991 38.4537 16.7793 38.2339C16.5596 38.0142 16.2616 37.8907 15.9508 37.8906H7.48672C7.17594 37.8907 6.87792 38.0142 6.65817 38.2339C6.43842 38.4537 6.31492 38.7517 6.31484 39.0625V47.2656H2.73437V33.9805L11.7187 28.7025L20.7031 33.9805V47.2656Z" fill="#C0D5FB"/>
<path d="M49.0311 32.2998L38.8748 26.3336C38.6949 26.2279 38.4899 26.1722 38.2813 26.1722C38.0726 26.1722 37.8677 26.2279 37.6877 26.3336L27.5314 32.2998C27.3552 32.403 27.2091 32.5506 27.1077 32.7278C27.0062 32.905 26.9529 33.1057 26.9531 33.3099V48.4375C26.9532 48.7483 27.0767 49.0463 27.2964 49.266C27.5162 49.4858 27.8142 49.6093 28.125 49.6094H48.4375C48.7483 49.6093 49.0463 49.4858 49.2661 49.266C49.4858 49.0463 49.6093 48.7483 49.6094 48.4375V33.3099C49.6096 33.1057 49.5563 32.905 49.4548 32.7278C49.3534 32.5506 49.2073 32.403 49.0311 32.2998ZM41.3414 47.2656H35.2211V40.2344H41.3414V47.2656ZM47.2656 47.2656H43.6852V39.0625C43.6851 38.7517 43.5616 38.4537 43.3418 38.2339C43.1221 38.0142 42.8241 37.8907 42.5133 37.8906H34.0492C33.7384 37.8907 33.4404 38.0142 33.2207 38.2339C33.0009 38.4537 32.8774 38.7517 32.8773 39.0625V47.2656H29.2969V33.9805L38.2813 28.7025L47.2656 33.9805V47.2656Z" fill="#C0D5FB"/>
</g>
<defs>
<clipPath id="clip0_1_118">
<rect width="50" height="50" fill="white"/>
</clipPath>
</defs>
</svg>
