<svg width="50" height="50" viewBox="0 0 50 50" fill="none" xmlns="http://www.w3.org/2000/svg">
<g clip-path="url(#clip0_1_124)">
<path d="M9.76562 41.0156H16.7969V49.6094H9.76562V41.0156Z" fill="#2F73F2"/>
<path d="M25.6779 32.3536L13.9591 24.0441C13.7609 23.9037 13.5241 23.8284 13.2812 23.8284C13.0384 23.8284 12.8016 23.9037 12.6034 24.0441L0.884625 32.3536C0.731926 32.462 0.607391 32.6053 0.521445 32.7716C0.435499 32.9379 0.39064 33.1224 0.390625 33.3096V48.4376C0.390601 48.5915 0.420897 48.7439 0.479781 48.886C0.538664 49.0282 0.624983 49.1574 0.733807 49.2662C0.84263 49.3751 0.971826 49.4614 1.11401 49.5203C1.2562 49.5792 1.4086 49.6095 1.5625 49.6094H7.42188V39.8438C7.42185 39.6899 7.45215 39.5375 7.51103 39.3953C7.56991 39.2531 7.65623 39.1239 7.76506 39.0151C7.87388 38.9063 8.00308 38.82 8.14527 38.7611C8.28745 38.7022 8.43985 38.6719 8.59375 38.6719H17.9688C18.1227 38.6719 18.275 38.7022 18.4172 38.7611C18.5594 38.82 18.6886 38.9063 18.7974 39.0151C18.9063 39.1239 18.9926 39.2531 19.0515 39.3953C19.1104 39.5375 19.1406 39.6899 19.1406 39.8438V49.6094H25C25.1539 49.6095 25.3063 49.5792 25.4485 49.5203C25.5907 49.4614 25.7199 49.3751 25.8287 49.2662C25.9375 49.1574 26.0238 49.0282 26.0827 48.886C26.1416 48.7439 26.1719 48.5915 26.1719 48.4376V33.3096C26.1719 33.1224 26.127 32.9379 26.0411 32.7716C25.9551 32.6053 25.8306 32.462 25.6779 32.3536ZM10.1562 36.3282H5.46875C5.15795 36.3282 4.85988 36.2047 4.64011 35.9849C4.42034 35.7652 4.29688 35.4671 4.29688 35.1563C4.29688 34.8455 4.42034 34.5474 4.64011 34.3277C4.85988 34.1079 5.15795 33.9844 5.46875 33.9844H10.1562C10.4671 33.9844 10.7651 34.1079 10.9849 34.3277C11.2047 34.5474 11.3281 34.8455 11.3281 35.1563C11.3281 35.4671 11.2047 35.7652 10.9849 35.9849C10.7651 36.2047 10.4671 36.3282 10.1562 36.3282ZM21.0938 36.3282H16.4062C16.0954 36.3282 15.7974 36.2047 15.5776 35.9849C15.3578 35.7652 15.2344 35.4671 15.2344 35.1563C15.2344 34.8455 15.3578 34.5474 15.5776 34.3277C15.7974 34.1079 16.0954 33.9844 16.4062 33.9844H21.0938C21.4046 33.9844 21.7026 34.1079 21.9224 34.3277C22.1422 34.5474 22.2656 34.8455 22.2656 35.1563C22.2656 35.4671 22.1422 35.7652 21.9224 35.9849C21.7026 36.2047 21.4046 36.3282 21.0938 36.3282Z" fill="#2F73F2"/>
<path d="M23.8281 9.375V14.0625C23.8281 14.2164 23.8584 14.3688 23.9173 14.511C23.9762 14.6532 24.0625 14.7824 24.1713 14.8912C24.2801 15 24.4093 15.0863 24.5515 15.1452C24.6937 15.2041 24.8461 15.2344 25 15.2344H29.6875C29.8414 15.2344 29.9938 15.2041 30.136 15.1452C30.2782 15.0863 30.4074 15 30.5162 14.8912C30.625 14.7824 30.7113 14.6532 30.7702 14.511C30.8291 14.3688 30.8594 14.2164 30.8594 14.0625V9.375C30.8594 9.2211 30.8291 9.0687 30.7702 8.92652C30.7113 8.78433 30.625 8.65513 30.5162 8.54631C30.4074 8.43748 30.2782 8.35116 30.136 8.29228C29.9938 8.2334 29.8414 8.2031 29.6875 8.20313H25C24.8461 8.2031 24.6937 8.2334 24.5515 8.29228C24.4093 8.35116 24.2801 8.43748 24.1713 8.54631C24.0625 8.65513 23.9762 8.78433 23.9173 8.92652C23.8584 9.0687 23.8281 9.2211 23.8281 9.375ZM26.1719 10.5469H28.5156V12.8906H26.1719V10.5469Z" fill="#C0D5FB"/>
<path d="M49.1154 15.564L28.0216 0.606593C27.8234 0.466245 27.5866 0.390869 27.3438 0.390869C27.1009 0.390869 26.8641 0.466245 26.6659 0.606593L5.57212 15.564C5.41943 15.6723 5.29489 15.8156 5.20894 15.982C5.123 16.1483 5.07814 16.3328 5.07812 16.52V24.2394C5.07812 24.5502 5.20159 24.8483 5.42136 25.068C5.64113 25.2878 5.9392 25.4113 6.25 25.4113C6.5608 25.4113 6.85887 25.2878 7.07864 25.068C7.29841 24.8483 7.42188 24.5502 7.42188 24.2394V20.4255H47.2656V47.2657H44.9219V34.3751C44.9219 34.2212 44.8916 34.0688 44.8327 33.9266C44.7738 33.7844 44.6875 33.6552 44.5787 33.5464C44.4699 33.4375 44.3407 33.3512 44.1985 33.2923C44.0563 33.2335 43.9039 33.2032 43.75 33.2032H29.6875C29.5336 33.2032 29.3812 33.2335 29.239 33.2923C29.0968 33.3512 28.9676 33.4375 28.8588 33.5464C28.75 33.6552 28.6637 33.7844 28.6048 33.9266C28.5459 34.0688 28.5156 34.2212 28.5156 34.3751V48.4376C28.5156 48.5915 28.5459 48.7439 28.6048 48.886C28.6637 49.0282 28.75 49.1574 28.8588 49.2663C28.9676 49.3751 29.0968 49.4614 29.239 49.5203C29.3812 49.5792 29.5336 49.6095 29.6875 49.6094H48.4375C48.5914 49.6095 48.7438 49.5792 48.886 49.5203C49.0282 49.4614 49.1574 49.3751 49.2662 49.2663C49.375 49.1574 49.4613 49.0282 49.5202 48.886C49.5791 48.7439 49.6094 48.5915 49.6094 48.4376V16.52C49.6094 16.3328 49.5645 16.1483 49.4786 15.982C49.3926 15.8156 49.2681 15.6723 49.1154 15.564ZM42.5781 47.2657H30.8594V44.9219H42.5781V47.2657ZM42.5781 42.5782H30.8594V40.2344H42.5781V42.5782ZM42.5781 37.8907H30.8594V35.5469H42.5781V37.8907ZM47.2656 18.0817H7.42188V17.1258L27.3438 2.99917L47.2656 17.1257V18.0817Z" fill="#C0D5FB"/>
<path d="M29.6875 30.8594H43.75C43.9039 30.8594 44.0563 30.8291 44.1985 30.7702C44.3407 30.7113 44.4699 30.625 44.5787 30.5162C44.6875 30.4074 44.7738 30.2782 44.8327 30.136C44.8916 29.9938 44.9219 29.8414 44.9219 29.6875V23.941C44.9219 23.7871 44.8916 23.6347 44.8327 23.4926C44.7738 23.3504 44.6875 23.2212 44.5787 23.1123C44.4699 23.0035 44.3407 22.9172 44.1985 22.8583C44.0563 22.7994 43.9039 22.7691 43.75 22.7692H29.6875C29.5336 22.7691 29.3812 22.7994 29.239 22.8583C29.0968 22.9172 28.9676 23.0035 28.8588 23.1123C28.75 23.2212 28.6637 23.3504 28.6048 23.4926C28.5459 23.6347 28.5156 23.7871 28.5156 23.941V29.6875C28.5156 29.8414 28.5459 29.9938 28.6048 30.136C28.6637 30.2782 28.75 30.4074 28.8588 30.5162C28.9676 30.625 29.0968 30.7113 29.239 30.7702C29.3812 30.8291 29.5336 30.8594 29.6875 30.8594ZM30.8594 25.1129H42.5781V28.5156H30.8594V25.1129Z" fill="#C0D5FB"/>
</g>
<defs>
<clipPath id="clip0_1_124">
<rect width="50" height="50" fill="white"/>
</clipPath>
</defs>
</svg>
