<svg width="40" height="37" viewBox="0 0 40 37" fill="none" xmlns="http://www.w3.org/2000/svg">
<path d="M12.9123 18.5291C12.9338 17.6558 12.4293 16.8548 11.6323 16.4969C10.8354 16.139 9.90155 16.2942 9.26314 16.8905L5.61402 20.3361C4.74354 21.1572 4.70348 22.5285 5.52454 23.3989C6.3456 24.2694 7.71687 24.3095 8.58735 23.4884L12.2365 20.0428C12.6547 19.6487 12.8981 19.1037 12.9123 18.5291Z" fill="#2F73F2"/>
<path d="M29.5382 0.112959C26.6813 0.0253259 23.9075 1.08145 21.8323 3.04699C6.40001 17.6196 21.3277 3.52419 14.534 9.94033C14.2561 10.2075 14.0924 10.5719 14.0772 10.9572C14.0379 12.5291 16.8028 13.7593 18.5467 12.1101L23.7853 7.16559C24.1913 6.78227 24.7329 6.57594 25.2911 6.59199C25.8492 6.60805 26.3781 6.84518 26.7614 7.2512L37.113 18.2224C43.3375 11.5438 38.8842 0.385942 29.5382 0.112959Z" fill="#2F73F2"/>
<path d="M20.7853 26.8745C20.8068 26.0011 20.3023 25.2001 19.5054 24.8422C18.7084 24.4844 17.7746 24.6395 17.1362 25.2359L13.487 28.6815C12.9241 29.2126 12.6872 30.0037 12.8657 30.7569C13.0442 31.51 13.6109 32.1107 14.3524 32.3326C15.0938 32.5546 15.8974 32.3642 16.4604 31.8331L20.1095 28.3874C20.5279 27.9937 20.7713 27.4488 20.7853 26.8745Z" fill="#2F73F2"/>
<path d="M36.5972 19.7186C36.527 19.6688 36.7453 19.8786 25.7396 8.21473C25.6118 8.07938 25.4354 8.00038 25.2493 7.99512C25.0632 7.98985 24.8826 8.05876 24.7474 8.18666L19.5088 13.1298C18.6833 13.9111 17.5808 14.3316 16.4447 14.2984C15.3086 14.2653 14.2325 13.7811 13.454 12.953C12.9335 12.4038 12.6529 11.6701 12.6741 10.9137C12.6953 10.1574 13.0166 9.44056 13.567 8.9214L19.3144 3.49403C16.6806 0.668192 12.7353 -0.530921 8.97456 0.351412C5.21379 1.23374 2.21346 4.0624 1.11133 7.76473C0.00920093 11.4671 0.974049 15.4761 3.64 18.2716L4.63508 19.3242C4.69684 19.254 4.6414 19.3165 8.29543 15.8674C9.41666 14.8099 11.0906 14.5928 12.4444 15.3295C13.7982 16.0661 14.5252 17.5895 14.2463 19.1053C15.3725 18.9563 16.5017 19.3574 17.2815 20.1835C18.0613 21.0096 18.3968 22.16 18.1831 23.2758C19.3098 23.128 20.439 23.5302 21.2186 24.3569C21.9982 25.1836 22.3335 26.3344 22.12 27.4505C23.2177 27.3042 24.3205 27.6817 25.0984 28.47C25.8762 29.2583 26.2389 30.366 26.0779 31.4617C27.0075 32.0021 28.193 31.7777 28.8608 30.9349C29.5286 30.0921 29.4761 28.8868 28.7375 28.1053L19.3874 18.1986C19.2152 18.0162 19.1535 17.7558 19.2254 17.5156C19.2973 17.2753 19.4919 17.0917 19.7359 17.0338C19.98 16.976 20.2363 17.0527 20.4084 17.2351L29.7586 27.1446C30.29 27.7074 31.0813 27.944 31.8344 27.7652C32.5875 27.5865 33.1881 27.0195 33.4098 26.2779C33.6316 25.5363 33.4408 24.7327 32.9095 24.1698L23.5586 14.261C23.2984 13.9783 23.314 13.5389 23.5935 13.2753C23.8731 13.0117 24.3127 13.0219 24.5796 13.2982L33.9312 23.207C34.5339 23.8438 35.4608 24.055 36.2798 23.7421C37.0989 23.4293 37.649 22.654 37.6737 21.7775C37.6413 20.9646 37.2463 20.209 36.5972 19.7186Z" fill="white"/>
<path d="M22.6197 28.8182C22.0452 28.7999 21.4873 29.0122 21.0702 29.4077L17.4211 32.854C16.8581 33.3853 16.6213 34.1765 16.7999 34.9297C16.9785 35.6829 17.5453 36.2836 18.2869 36.5055C19.0285 36.7274 19.8321 36.5369 20.3951 36.0056L24.0442 32.56C24.6786 31.9573 24.8888 31.0326 24.5775 30.2149C24.2662 29.3972 23.4942 28.8464 22.6197 28.8182Z" fill="#2F73F2"/>
<path d="M16.8484 22.7017C16.8699 21.8284 16.3654 21.0274 15.5685 20.6695C14.7716 20.3117 13.8377 20.4668 13.1993 21.0631L9.55017 24.5088C8.69482 25.333 8.66247 26.6922 9.47763 27.5563C10.2928 28.4203 11.6516 28.467 12.5242 27.661L16.1733 24.2147C16.5912 23.8207 16.8343 23.2759 16.8484 22.7017Z" fill="#2F73F2"/>
</svg>
